<svg xmlns="http://www.w3.org/2000/svg" xmlns:xlink="http://www.w3.org/1999/xlink" width="80" height="80" style=""><rect id="backgroundrect" width="100%" height="100%" x="0" y="0" fill="none" stroke="none"/>
    
<g class="currentLayer" style=""><title>Layer 1</title><path fill-rule="evenodd" opacity="0.8" fill="rgb(255, 255, 255)" d="M7.536,4.749745106773229e-11 C3.3810000000000002,4.749745106773229e-11 0,3.3810000000474973 0,7.537000000047497 L0,72.46400000004749 C0,76.6200000000475 3.3810000000000002,80.00000000004749 7.536,80.00000000004749 L72.464,80.00000000004749 C76.619,80.00000000004749 80,76.6200000000475 80,72.46400000004749 L80,7.537000000047497 C80,3.3810000000474973 76.619,4.749745106773229e-11 72.464,4.749745106773229e-11 L7.536,4.749745106773229e-11 zM72.464,78.1790000000475 L7.536,78.1790000000475 C4.385,78.1790000000475 1.822,75.6150000000475 1.822,72.46400000004749 L1.822,7.537000000047497 C1.822,4.386000000047497 4.385,1.8220000000474976 7.536,1.8220000000474976 L72.464,1.8220000000474976 C75.615,1.8220000000474976 78.178,4.386000000047497 78.178,7.537000000047497 L78.178,72.46400000004749 C78.178,75.6150000000475 75.615,78.1790000000475 72.464,78.1790000000475 zM24.182,63.4370000000475 L26.004,63.4370000000475 L26.004,44.8870000000475 L44.969,44.8870000000475 C52.778,44.8870000000475 59.13,38.5340000000475 59.13,30.725000000047498 C59.13,22.916000000047497 52.778,16.5630000000475 44.969,16.5630000000475 L24.182,16.5630000000475 L24.182,63.4370000000475 zM44.969,43.0650000000475 L26.004,43.0650000000475 L26.004,18.385000000047498 L44.969,18.385000000047498 C51.773,18.385000000047498 57.308,23.9210000000475 57.308,30.725000000047498 C57.308,37.529000000047496 51.773,43.0650000000475 44.969,43.0650000000475 z" id="svg_1" class=""/></g></svg>