<svg xmlns="http://www.w3.org/2000/svg" xmlns:xlink="http://www.w3.org/1999/xlink" width="80" height="55" style=""><rect id="backgroundrect" width="100%" height="100%" x="0" y="0" fill="none" stroke="none"/>
    
<g class="currentLayer" style=""><title>Layer 1</title><path fill-rule="evenodd" opacity="0.8" fill="rgb(255, 255, 255)" d="M79.1889999961853,54.99999996709823 L0.8079999961853028,54.99999996709823 L-3.814697224768793e-9,54.19899996709824 L-3.814697224768793e-9,0.8009999670982362 L0.8079999961853028,-3.290176386894217e-8 L79.1889999961853,-3.290176386894217e-8 L79.99699999618531,0.8009999670982362 L79.99699999618531,54.19899996709824 L79.1889999961853,54.99999996709823 zM1.6159999961853027,53.39799996709824 L78.3819999961853,53.39799996709824 L78.3819999961853,1.6019999670982363 L1.6159999961853027,1.6019999670982363 L1.6159999961853027,53.39799996709824 zM69.9449999961853,48.069999967098234 L61.0009999961853,48.069999967098234 C56.2509999961853,48.069999967098234 51.7709999961853,45.907999967098235 48.3869999961853,41.98199996709823 C45.0189999961853,38.075999967098234 43.1649999961853,32.90299996709824 43.1649999961853,27.416999967098235 C43.1649999961853,22.060999967098237 45.0189999961853,16.957999967098235 48.3869999961853,13.048999967098236 C51.793999996185306,9.092999967098237 56.2739999961853,6.913999967098237 61.0009999961853,6.913999967098237 L69.9449999961853,6.913999967098237 L70.7519999961853,7.714999967098237 L70.7519999961853,47.26899996709824 L69.9449999961853,48.069999967098234 zM61.0009999961853,8.515999967098237 C52.208999996185305,8.515999967098237 44.7799999961853,17.170999967098236 44.7799999961853,27.416999967098235 C44.7799999961853,37.92199996709824 52.056999996185304,46.46799996709824 61.0009999961853,46.46799996709824 L69.13699999618531,46.46799996709824 L69.13699999618531,8.515999967098237 L61.0009999961853,8.515999967098237 zM18.983999996185304,48.069999967098234 L10.065999996185303,48.069999967098234 L9.258999996185302,47.26899996709824 L9.258999996185302,7.714999967098237 L10.065999996185303,6.913999967098237 L18.983999996185304,6.913999967098237 C23.706999996185303,6.913999967098237 28.187999996185304,9.092999967098237 31.599999996185304,13.047999967098235 C34.9749999961853,16.959999967098238 36.833999996185305,22.062999967098236 36.833999996185305,27.416999967098235 C36.833999996185305,32.90099996709824 34.9749999961853,38.07399996709824 31.599999996185304,41.98199996709823 C28.210999996185304,45.907999967098235 23.729999996185303,48.069999967098234 18.983999996185304,48.069999967098234 zM10.873999996185303,46.46799996709824 L18.983999996185304,46.46799996709824 C27.935999996185302,46.46799996709824 35.217999996185306,37.92199996709824 35.217999996185306,27.416999967098235 C35.217999996185306,17.170999967098236 27.7839999961853,8.515999967098237 18.983999996185304,8.515999967098237 L10.873999996185303,8.515999967098237 L10.873999996185303,46.46799996709824 z" id="svg_1" class=""/></g></svg>