<svg xmlns="http://www.w3.org/2000/svg" xmlns:xlink="http://www.w3.org/1999/xlink" width="80" height="69"><rect id="backgroundrect" width="100%" height="100%" x="0" y="0" fill="none" stroke="none"/>
    
<g class="currentLayer" style=""><title>Layer 1</title><path fill-rule="evenodd" opacity="0.8" fill="rgb(255, 255, 255)" d="M7.741177613735199,-1.0013580298284808e-8 L7.742177613735199,0.6649999899864196 C14.221177613735199,0.6649999899864196 16.5191776137352,4.910999989986419 16.6131776137352,5.08999998998642 C16.6241776137352,5.10999998998642 16.6341776137352,5.1319999899864195 16.6481776137352,5.17399998998642 L24.149177613735198,25.36199998998642 L24.3111776137352,25.79699998998642 L24.7781776137352,25.79699998998642 L47.8011776137352,25.79699998998642 C51.177177613735196,25.79699998998642 53.9231776137352,28.520999989986418 53.9231776137352,31.86899998998642 L53.9231776137352,42.85099998998642 L53.9231776137352,43.43099998998642 L54.5031776137352,43.50899998998642 L79.3581776137352,46.84699998998642 C79.7971776137352,46.90699998998642 80.1061776137352,47.30899998998642 80.0471776137352,47.74499998998642 C79.9941776137352,48.13899998998642 79.6531776137352,48.43599998998642 79.2541776137352,48.43599998998642 C79.2211776137352,48.43599998998642 79.1871776137352,48.43199998998642 79.1431776137352,48.42599998998642 L75.56617761373519,47.943999989986416 L75.1421776137352,47.885999989986416 L74.9111776137352,48.24299998998642 L70.6481776137352,54.83499998998642 C70.4971776137352,55.06699998998642 70.2431776137352,55.20499998998642 69.9671776137352,55.20499998998642 C69.9391776137352,55.20499998998642 69.9131776137352,55.20399998998642 69.8591776137352,55.19599998998642 L54.6861776137352,53.15999998998642 L53.9261776137352,53.05799998998642 L53.9261776137352,53.81799998998642 L53.9261776137352,56.38999998998642 C53.9261776137352,58.89899998998642 52.3151776137352,61.17699998998642 49.918177613735196,62.05999998998642 L49.043177613735196,62.38099998998642 L48.6061776137352,62.54199998998642 L48.6061776137352,63.00399998998642 L48.6061776137352,68.20999998998641 C48.6061776137352,68.64999998998643 48.2461776137352,69.00699998998643 47.8031776137352,69.00699998998643 C47.3591776137352,69.00699998998643 46.9981776137352,68.64999998998643 46.9981776137352,68.20999998998641 L46.9981776137352,63.12699998998642 L46.9981776137352,62.46299998998642 L46.3281776137352,62.46299998998642 L21.8131776137352,62.46299998998642 L21.143177613735197,62.46299998998642 L21.143177613735197,63.12699998998642 L21.143177613735197,68.20999998998641 C21.143177613735197,68.64999998998643 20.7821776137352,69.00699998998643 20.338177613735198,69.00699998998643 C19.8941776137352,69.00699998998643 19.5321776137352,68.64999998998643 19.5321776137352,68.20999998998641 L19.5321776137352,63.00399998998642 L19.5321776137352,62.54199998998642 L19.0961776137352,62.38099998998642 L18.2231776137352,62.05999998998642 C15.824177613735198,61.17599998998642 14.2131776137352,58.89799998998642 14.2131776137352,56.38999998998642 L14.2131776137352,40.443999989986416 L14.2131776137352,40.20099998998642 L14.055177613735198,40.01599998998642 L13.7411776137352,39.64599998998642 C13.6621776137352,39.55199998998642 13.612177613735199,39.47599998998642 13.5881776137352,39.41199998998642 L0.050177613735198995,3.1219999899864197 C-0.023822386264801015,2.92299998998642 -0.01582238626480101,2.7069999899864197 0.07317761373519899,2.51599998998642 C0.163177613735199,2.3239999899864197 0.328177613735199,2.17299998998642 0.5271776137351991,2.09999998998642 C3.137177613735199,1.14799998998642 5.5641776137351995,0.6649999899864196 7.741177613735199,0.6649999899864196 L7.741177613735199,-1.0013580298284808e-8 M14.4181776137352,36.75299998998642 C14.4181776137352,36.75299998998642 14.397177613735199,33.89899998998642 14.397177613735199,32.19599998998642 C14.439177613735199,29.87099998998642 14.9791776137352,29.00899998998642 14.9791776137352,29.00899998998642 C15.9771776137352,27.18599998998642 17.8111776137352,26.00599998998642 19.887177613735197,25.85299998998642 L21.6591776137352,25.72199998998642 L22.5451776137352,25.65699998998642 L22.2381776137352,24.82999998998642 L15.224177613735199,5.947999989986419 L15.2101776137352,5.910999989986419 L15.192177613735199,5.87499998998642 L15.045177613735198,5.58999998998642 L15.026177613735198,5.55399998998642 L15.003177613735199,5.52099998998642 C14.484177613735199,4.75999998998642 12.4221776137352,2.27699998998642 7.671177613735199,2.27699998998642 C6.533177613735199,2.27699998998642 5.307177613735199,2.4249999899864196 4.029177613735199,2.7159999899864196 L2.543177613735199,3.0539999899864196 L1.8011776137351991,3.22399998998642 L2.065177613735199,3.9319999899864193 L12.352177613735199,31.49699998998642 L12.8641776137352,32.87099998998642 M20.338177613735198,60.86599998998642 L47.8011776137352,60.86599998998642 C50.2911776137352,60.86599998998642 52.3161776137352,58.85799998998642 52.3161776137352,56.38999998998642 L52.3161776137352,31.869999989986418 C52.3161776137352,29.40099998998642 50.2911776137352,27.39299998998642 47.8011776137352,27.39299998998642 L20.338177613735198,27.39299998998642 C17.8481776137352,27.39299998998642 15.8221776137352,29.40099998998642 15.8221776137352,31.869999989986418 L15.8221776137352,56.38999998998642 C15.8221776137352,58.85799998998642 17.8481776137352,60.86599998998642 20.338177613735198,60.86599998998642 M69.5631776137352,53.54599998998642 L69.7931776137352,53.18999998998642 L72.81617761373519,48.52999998998642 L73.3851776137352,47.65299998998642 L72.3421776137352,47.51199998998642 L54.6821776137352,45.14099998998642 L53.9221776137352,45.03899998998642 L53.9221776137352,45.79899998998642 L53.9221776137352,50.86999998998642 L53.9221776137352,51.449999989986416 L54.5021776137352,51.52799998998642 L69.1401776137352,53.48999998998642 L69.5631776137352,53.54599998998642 " id="svg_1" class=""/></g></svg>